<?xml version="1.0"?><svg data-name="Layer 1" id="Layer_1" viewBox="0 0 64 64" xmlns="http://www.w3.org/2000/svg"><title/><path d="M58.71,8H5.29A2.28,2.28,0,0,0,3,10.29V53.71A2.28,2.28,0,0,0,5.29,56H58.71A2.28,2.28,0,0,0,61,53.71V10.29A2.28,2.28,0,0,0,58.71,8Z" fill="#cfdee7"/><path d="M44.67,33.38a2.63,2.63,0,0,1-1.85-4.49l.94-.93L40,24.24l-.93.94a2.63,2.63,0,0,1-4.49-1.85V22H29.38v1.33a2.63,2.63,0,0,1-4.49,1.85L24,24.24,20.24,28l.94.93a2.63,2.63,0,0,1-1.85,4.49H18v5.24h1.33a2.63,2.63,0,0,1,1.85,4.49l-.94.93L24,47.76l.93-.94a2.63,2.63,0,0,1,4.49,1.85V50h5.24V48.67a2.63,2.63,0,0,1,4.49-1.85l.93.94L43.76,44l-.94-.93a2.63,2.63,0,0,1,1.85-4.49H46V33.38ZM32,43a7,7,0,1,1,7-7A7,7,0,0,1,32,43Z" fill="#19405e"/><path d="M61,10.29V16H3V10.29A2.28,2.28,0,0,1,5.29,8H58.71A2.28,2.28,0,0,1,61,10.29Z" fill="#e9633b"/><path d="M5.29,57H58.71A3.29,3.29,0,0,0,62,53.71V10.29A3.29,3.29,0,0,0,58.71,7H5.29A3.29,3.29,0,0,0,2,10.29V53.71A3.29,3.29,0,0,0,5.29,57ZM4,10.29A1.29,1.29,0,0,1,5.29,9H58.71A1.29,1.29,0,0,1,60,10.29V15H4ZM4,17H60V53.71A1.29,1.29,0,0,1,58.71,55H5.29A1.29,1.29,0,0,1,4,53.71Z"/><rect height="2" width="20" x="6" y="11"/><rect height="2" width="2" x="54" y="11"/><rect height="2" width="2" x="47" y="11"/><path d="M18,39.63h1.33a1.62,1.62,0,0,1,1.15,2.77l-.94.94a1,1,0,0,0-.3.7,1,1,0,0,0,.3.71l3.71,3.71a1,1,0,0,0,.71.3,1,1,0,0,0,.7-.3l.94-.93a1.57,1.57,0,0,1,1.77-.36,1.59,1.59,0,0,1,1,1.5V50a1,1,0,0,0,1,1h5.25a1,1,0,0,0,1-1V48.67a1.58,1.58,0,0,1,1-1.5,1.57,1.57,0,0,1,1.77.36l.94.93a1,1,0,0,0,1.41,0l3.71-3.71a1,1,0,0,0,.3-.71,1,1,0,0,0-.3-.7l-.93-.94a1.57,1.57,0,0,1-.36-1.77,1.58,1.58,0,0,1,1.5-1H46a1,1,0,0,0,1-1V33.38a1,1,0,0,0-1-1H44.67a1.63,1.63,0,0,1-1.15-2.78l.94-.94a1,1,0,0,0,.3-.7,1,1,0,0,0-.3-.71l-3.71-3.71a1,1,0,0,0-.71-.3,1,1,0,0,0-.7.3l-.94.93a1.57,1.57,0,0,1-1.77.36,1.58,1.58,0,0,1-1-1.5V22a1,1,0,0,0-1-1H29.38a1,1,0,0,0-1,1v1.33a1.59,1.59,0,0,1-1,1.5,1.57,1.57,0,0,1-1.77-.36l-.94-.93a1,1,0,0,0-1.41,0l-3.71,3.71a1,1,0,0,0-.3.71,1,1,0,0,0,.3.7l.93.94a1.57,1.57,0,0,1,.36,1.77,1.59,1.59,0,0,1-1.5,1H18a1,1,0,0,0-1,1v5.25A1,1,0,0,0,18,39.63Zm1-5.25h.33a3.63,3.63,0,0,0,2.56-6.19L21.66,28l2.3-2.3.23.23a3.63,3.63,0,0,0,6.19-2.56V23h3.25v.33a3.62,3.62,0,0,0,6.18,2.56l.23-.23,2.3,2.3-.23.23a3.63,3.63,0,0,0,2.56,6.19H45v3.25h-.33a3.62,3.62,0,0,0-2.56,6.18l.23.23L40,46.34l-.23-.23a3.62,3.62,0,0,0-6.18,2.56V49H30.38v-.33a3.63,3.63,0,0,0-6.19-2.56l-.23.23L21.66,44l.23-.23a3.62,3.62,0,0,0-2.56-6.18H19Z"/><path d="M32,44a8,8,0,1,0-8-8A8,8,0,0,0,32,44Zm0-14a6,6,0,1,1-6,6A6,6,0,0,1,32,30Z"/></svg>